<?xml version="1.0" encoding="utf-8"?>
<!-- Generator: Adobe Illustrator 25.0.1, SVG Export Plug-In . SVG Version: 6.00 Build 0)  -->
<svg version="1.1" id="Layer_1" xmlns="http://www.w3.org/2000/svg" xmlns:xlink="http://www.w3.org/1999/xlink" x="0px" y="0px"
	 viewBox="0 0 201.13 56" style="enable-background:new 0 0 201.13 56;" xml:space="preserve">
<style type="text/css">
	.st0{fill:#231F1F;}
	.st1{fill:#C5282A;}
</style>
<g>
	<rect x="65.85" y="32.25" class="st0" width="14.14" height="2.83"/>
	<rect x="65.85" y="20.98" class="st0" width="14.14" height="2.83"/>
	<polygon class="st0" points="72.92,26.55 65.85,26.55 65.85,29.38 70.87,29.38 	"/>
	<polygon class="st0" points="101.88,25.75 97.82,20.9 94.12,20.9 100.26,28.48 100.26,35.03 103.5,35.03 103.5,28.48 109.64,20.9 
		105.94,20.9 	"/>
	<polygon class="st0" points="110.51,23.72 115.95,23.72 115.95,35.03 119.19,35.03 119.19,23.72 124.64,23.72 124.64,20.9 
		110.5,20.9 	"/>
	<path class="st0" d="M135.13,29.38c3.14,0,4.71-1.41,4.71-4.24c0-2.83-1.57-4.24-4.71-4.23h-9.42v2.83h8.95
		c1.57,0,2.35,0.47,2.35,1.41c0,0.94-0.78,1.41-2.35,1.42h-8.95v2.83h4.2l6.63,5.66h4.35l-6.64-5.66L135.13,29.38z"/>
	<path class="st0" d="M151.13,20.9h-4.71c-3.14,0-4.71,1.57-4.71,4.71v4.71c0,3.14,1.57,4.71,4.71,4.71l0,0h4.71
		c3.14,0,4.71-1.57,4.71-4.71v-4.71C155.85,22.47,154.28,20.9,151.13,20.9z M153.01,29.85c0,1.57-0.78,2.36-2.35,2.36h-3.76
		c-1.57,0-2.36-0.79-2.35-2.36v-3.77c0-1.57,0.62-2.36,1.87-2.36h4.24c1.57,0,2.36,0.79,2.35,2.36V29.85z"/>
	<polygon class="st0" points="169.02,30.74 160.6,20.9 157.71,20.9 157.71,35.03 160.54,35.03 160.54,25.18 168.98,35.03 
		171.85,35.03 171.85,22.94 169.02,20.9 	"/>
	<polygon class="st0" points="173.51,20.9 173.51,35.03 176.75,35.03 176.75,22.96 	"/>
	<path class="st0" d="M181.07,29.94v-3.96c0-1.51,0.76-2.26,2.27-2.26h6.99l2.05-2.83h-9.41c-3.13,0-4.7,1.57-4.7,4.71v4.71
		c0,3.14,1.57,4.71,4.71,4.71h9.42V32.2h-9.04C181.83,32.2,181.07,31.45,181.07,29.94z"/>
	<polygon class="st0" points="83.8,23.81 89.67,23.81 86.09,27.65 81.76,32.28 81.76,35.11 93.16,35.11 93.16,32.28 85.25,32.28 
		88.06,29.27 93.16,23.81 93.16,20.98 81.76,20.98 	"/>
	<g id="Logo">
		<path class="st1" d="M19.91,37.98c-5.13-7.99-2.81-18.63,5.18-23.76c4.91-3.15,11.08-3.6,16.39-1.19
			c-0.09-0.11-0.14-0.17-0.2-0.23c-1.69-1.69-3.36-3.4-5.09-5.05c-0.63-0.6-1.32-1.12-2.07-1.56c-1.24-0.78-2.76-0.99-4.17-0.59
			c-1.33,0.41-2.54,1.16-3.49,2.18C21.35,12.89,16.23,18,11.12,23.12c-0.66,0.69-1.24,1.46-1.71,2.3c-0.71,1.22-0.88,2.67-0.48,4.02
			c0.41,1.47,1.3,2.63,2.35,3.69c4.99,4.99,9.98,9.97,14.97,14.95c0.38,0.38,0.78,0.73,1.19,1.06c1.19,0.92,2.49,1.52,4.04,1.47
			c1.72-0.05,3.14-0.82,4.37-1.95c1.16-1.08,2.26-2.22,3.38-3.34c0.04-0.05,0.07-0.1,0.09-0.15C31.08,47.47,23.63,43.77,19.91,37.98
			z"/>
		<path class="st1" d="M50.75,24.2c-0.77-2.73-2.27-5.06-4.18-7.14c-0.48-0.52-1.01-0.98-1.52-1.47c-0.01,0.21,0.02,0.42,0.09,0.62
			c0.72,2.31,1.19,4.66,0.97,7.1c-0.31,3.25-1.84,5.65-4.87,6.99c-1.83,0.81-3.77,1.07-5.74,1.1c-3.34,0.04-6.6-0.55-9.82-1.39
			c-1.33-0.35-2.66-0.75-3.98-1.13l-0.04,0.05c0.39,0.31,0.78,0.6,1.18,0.89c5.25,3.72,11,5.9,17.53,5.5
			c2.38-0.1,4.71-0.79,6.76-2.01C50.45,31.3,51.81,27.96,50.75,24.2z"/>
	</g>
</g>
</svg>
